<?xml version="1.0" encoding="utf-8"?>
<!-- Generator: Adobe Illustrator 21.1.0, SVG Export Plug-In . SVG Version: 6.00 Build 0)  -->
<svg version="1.1" id="Layer_1" xmlns="http://www.w3.org/2000/svg" xmlns:xlink="http://www.w3.org/1999/xlink" x="0px" y="0px"
	 viewBox="0 0 1000 283" style="enable-background:new 0 0 1000 283;" xml:space="preserve">
<style type="text/css">
	.st0{fill:#FFFFFF;}
	.st1{opacity:0.64;}
	.st2{fill:#E8E5E2;}
	.st3{fill:#585858;}
	.st4{fill:#3F97B2;}
	.st5{fill:#285C68;}
	.st6{opacity:0.8;fill:#FFFFFF;}
	.st7{opacity:0.8;fill:#3F97B2;}
	.st8{opacity:0.8;}
	.st9{opacity:0.8;fill:#BF1010;}
	.st10{fill:#4F0808;}
	.st11{fill:#3E3E3E;}
	.st12{fill:#4DBDEB;}
	.st13{fill:#BF1010;}
	.st14{opacity:0.58;}
</style>
<g>
	<path class="st0" d="M54.7,169.9c-0.1,0.5-0.2,1-0.2,1.7c0,2.6,0.6,4.9,1.8,6.9c1.2,2,2.7,3.8,4.6,5.2c1.9,1.4,4.1,2.5,6.5,3.2
		c2.4,0.7,4.9,1.1,7.5,1.1c4.7,0,8.8-0.9,12.4-2.6c3.6-1.7,6.8-4.1,9.6-7l18.7,14.6c-5.9,6.3-12.5,10.8-19.8,13.6
		c-7.3,2.8-15.1,4.2-23.5,4.2c-6.4,0-12.4-0.9-17.9-2.7c-5.5-1.8-10.3-4.4-14.3-8c-4.1-3.5-7.3-7.9-9.6-13
		c-2.3-5.2-3.5-11.1-3.5-17.8c0-7.9,1.4-15.3,4.2-22.1c2.8-6.8,6.6-12.8,11.5-17.9c4.9-5.1,10.7-9,17.5-11.9
		c6.8-2.9,14.2-4.3,22.4-4.3c6,0,11.6,0.9,16.6,2.6c5,1.7,9.3,4.2,12.9,7.5c3.6,3.3,6.4,7.3,8.3,12.1c2,4.8,3,10.4,3,16.6
		c0,2.2-0.2,5-0.6,8.4c-0.4,3.4-1,6.6-1.8,9.5H54.7z M96.7,151.8c0.1-0.6,0.2-1.2,0.2-1.8c0-0.6,0-1.2,0-1.9c0-4.1-1.5-7.5-4.3-10.2
		c-2.9-2.7-7.1-4.1-12.5-4.1c-3.3,0-6.3,0.6-9,1.8c-2.7,1.2-5,2.6-6.9,4.3c-2,1.7-3.6,3.6-4.8,5.7c-1.2,2.1-2.1,4.1-2.6,6.1H96.7z"
		/>
	<path class="st0" d="M294.9,208h-37.4L246.7,99.1H246L193.2,208H156L142.1,48.7h39.6l4.7,107.1h0.7l49.5-107.1h38.7l8.6,107.1h0.7
		L332,48.7h39.4L294.9,208z"/>
	<path class="st0" d="M397.7,161.7c-0.2,0.6-0.2,1.3-0.2,2c0,3.2,0.7,6,2.1,8.4c1.4,2.5,3.3,4.6,5.6,6.3c2.3,1.7,4.9,3,7.9,3.9
		c2.9,0.9,6,1.4,9.1,1.4c5.7,0,10.7-1,15.1-3.2c4.3-2.1,8.2-4.9,11.7-8.5l22.7,17.8c-7.2,7.6-15.2,13.2-24.1,16.5
		c-8.9,3.4-18.4,5.1-28.6,5.1c-7.8,0-15-1.1-21.7-3.3c-6.7-2.2-12.5-5.4-17.4-9.7c-5-4.3-8.9-9.6-11.7-15.9
		c-2.9-6.3-4.3-13.5-4.3-21.6c0-9.6,1.7-18.6,5.1-26.9c3.4-8.3,8-15.6,14-21.7c5.9-6.1,13-11,21.3-14.5c8.2-3.5,17.3-5.3,27.2-5.3
		c7.3,0,14.1,1.1,20.1,3.1c6.1,2.1,11.3,5.1,15.6,9.1c4.3,4,7.7,8.9,10.1,14.7c2.4,5.8,3.6,12.6,3.6,20.2c0,2.7-0.3,6.1-0.8,10.2
		c-0.5,4.1-1.2,8-2.1,11.6H397.7z M448.8,139.6c0.1-0.7,0.2-1.5,0.2-2.2c0-0.7,0-1.5,0-2.2c0-5-1.8-9.1-5.3-12.4
		c-3.5-3.3-8.6-5-15.2-5c-4.1,0-7.7,0.7-10.9,2.1c-3.2,1.4-6,3.2-8.4,5.3c-2.4,2.1-4.4,4.4-5.9,7c-1.5,2.6-2.6,5-3.1,7.4H448.8z"/>
	<path class="st0" d="M553.8,110.4c3.9-5.2,9-9.5,15.4-12.6c6.4-3.1,13.2-4.7,20.4-4.7c7.2,0,13.7,1.2,19.5,3.6
		c5.8,2.4,10.6,5.7,14.6,10c4,4.3,7,9.4,9.1,15.3c2.1,5.9,3.2,12.3,3.2,19.2c0,9.6-1.5,18.6-4.6,27.1c-3.1,8.5-7.4,15.9-12.9,22.2
		c-5.6,6.3-12.1,11.2-19.6,14.8c-7.5,3.6-15.8,5.4-24.8,5.4c-8,0-15.3-1.7-21.9-5c-6.7-3.3-11.7-7.9-15.2-13.7h-0.5l-2.7,16h-33.3
		l29.9-170.1h36.2l-13.3,72.5H553.8z M600.2,145.9c0-6.8-2-12.4-5.8-17c-3.9-4.6-9.7-6.9-17.3-6.9c-4.5,0-8.7,1-12.6,2.9
		c-3.9,2-7.2,4.6-10,7.9c-2.8,3.3-5,7.1-6.6,11.5c-1.7,4.4-2.5,8.9-2.5,13.7c0,6.9,2.1,12.6,6.3,17c4.2,4.4,10,6.6,17.3,6.6
		c4.8,0,9.1-0.9,12.9-2.8c3.8-1.9,7.1-4.4,9.8-7.6c2.7-3.2,4.8-7,6.3-11.4C599.4,155.5,600.2,150.9,600.2,145.9z"/>
	<polygon class="st0" points="654.2,208 673.8,96 710,96 690,208 	"/>
	<path class="st0" d="M721.6,58.2c0,3.3-0.6,6.3-1.7,9.1c-1.2,2.8-2.8,5.3-4.8,7.5c-2.1,2.2-4.5,4-7.3,5.2c-2.8,1.2-5.9,1.9-9.1,1.9
		c-6.3,0-11.4-1.9-15.5-5.6c-4-3.7-6.1-8.4-6.1-14.2c0-6.8,2.3-12.4,6.8-16.9c4.5-4.5,10.1-6.8,16.7-6.8c6.1,0,11.1,1.9,15.1,5.7
		C719.7,47.9,721.6,52.6,721.6,58.2z"/>
	<path class="st0" d="M825.9,64.7c-2.9-1.2-6-1.8-9.5-1.8c-3.3,0-6,0.6-8.2,1.8c-2.2,1.2-4,2.8-5.5,4.8c-1.5,2-2.7,4.3-3.5,6.9
		c-0.8,2.6-1.5,5.1-1.9,7.6l-2,11.9h25.2l-4.7,27H791l-15.1,85h-35.3l15.1-85h-20.5l4.7-27h19.8l2.2-11.5c1.2-6.4,2.9-12.7,5.2-18.9
		c2.2-6.1,5.4-11.6,9.6-16.3c4.1-4.7,9.3-8.5,15.6-11.4c6.3-2.8,14-4.3,23.2-4.3c3,0,6,0.2,9,0.6c3,0.4,5.6,0.9,7.9,1.7L825.9,64.7z
		"/>
	<path class="st0" d="M899,224.9c-3.3,5.9-6.6,11.1-9.8,15.8c-3.2,4.6-6.8,8.5-10.6,11.7c-3.8,3.1-8.2,5.5-13.2,7.2
		c-5,1.6-10.7,2.5-17.3,2.5c-7.1,0-13.2-0.8-18.5-2.5l5.4-29.7c3.3,1.3,6.8,2,10.6,2c5.2,0,9.3-1.3,12.3-3.9
		c2.9-2.6,5.7-6.3,8.4-11.1l5.4-9.2L845.9,96h39.4l11.2,73.3h0.5L934.1,96h38.2L899,224.9z"/>
</g>
</svg>
